<?xml version="1.0" encoding="UTF-8"?>
<svg width="129px" height="37px" viewBox="0 0 129 37" version="1.1" xmlns="http://www.w3.org/2000/svg" xmlns:xlink="http://www.w3.org/1999/xlink">
    <!-- Generator: Sketch 50.2 (55047) - http://www.bohemiancoding.com/sketch -->
    <title>Shopify</title>
    <desc>Created with Sketch.</desc>
    <defs></defs>
    <g id="----Bsales" stroke="none" stroke-width="1" fill="none" fill-rule="evenodd">
        <g id="Change-listing-Bsales-final" transform="translate(-210.000000, -5436.000000)" fill-rule="nonzero">
            <g id="Group-23" transform="translate(0.000000, 5223.000000)">
                <g id="available">
                    <g id="Group-17" transform="translate(175.000000, 100.000000)">
                        <g id="logo-shopify" transform="translate(0.000000, 83.000000)">
                            <g id="Shopify" transform="translate(35.000000, 30.000000)">
                                <g id="Group">
                                    <path d="M27.7092,7.03776224 C27.6834,6.85664336 27.5286,6.75314685 27.3996,6.75314685 C27.2706,6.75314685 24.51,6.54615385 24.51,6.54615385 C24.51,6.54615385 22.6008,4.63146853 22.3686,4.42447552 C22.1622,4.21748252 21.7494,4.26923077 21.5946,4.32097902 C21.5688,4.32097902 21.1818,4.45034965 20.511,4.65734266 C19.866,2.76853147 18.7308,1.06083916 16.7442,1.06083916 C16.6926,1.06083916 16.641,1.06083916 16.5636,1.06083916 C16.0218,0.336363636 15.2994,0 14.706,0 C10.062,0 7.8432,5.82167832 7.1466,8.77132867 C5.3406,9.34055944 4.0506,9.72867133 3.8958,9.78041958 C2.8896,10.0909091 2.8638,10.1167832 2.7348,11.0741259 C2.6316,11.7986014 0,32.2391608 0,32.2391608 L20.511,36.0944056 L31.6308,33.6881119 C31.6308,33.6622378 27.735,7.21888112 27.7092,7.03776224 Z M19.3758,4.96783217 C18.8598,5.12307692 18.2664,5.3041958 17.6472,5.51118881 C17.6472,5.38181818 17.6472,5.27832168 17.6472,5.12307692 C17.6472,3.98461538 17.4924,3.05314685 17.2344,2.3027972 C18.2664,2.45804196 18.9372,3.62237762 19.3758,4.96783217 Z M15.9444,2.56153846 C16.2282,3.28601399 16.4088,4.2951049 16.4088,5.69230769 C16.4088,5.76993007 16.4088,5.82167832 16.4088,5.8993007 C15.2736,6.26153846 14.061,6.62377622 12.8226,7.01188811 C13.5192,4.34685315 14.835,3.05314685 15.9444,2.56153846 Z M14.577,1.24195804 C14.7834,1.24195804 14.9898,1.31958042 15.1704,1.44895105 C13.674,2.14755245 12.1002,3.90699301 11.4294,7.45174825 C10.449,7.76223776 9.4944,8.04685315 8.5914,8.33146853 C9.3654,5.64055944 11.2488,1.24195804 14.577,1.24195804 Z" id="Shape" fill="#95BF47"></path>
                                    <path d="M27.3996,6.72727273 C27.2706,6.72727273 24.51,6.52027972 24.51,6.52027972 C24.51,6.52027972 22.6008,4.60559441 22.3686,4.3986014 C22.2912,4.32097902 22.188,4.26923077 22.0848,4.26923077 L20.5368,36.0944056 L31.6566,33.6881119 C31.6566,33.6881119 27.7608,7.21888112 27.735,7.03776224 C27.6834,6.85664336 27.5286,6.75314685 27.3996,6.72727273 Z" id="Shape" fill="#5E8E3E"></path>
                                    <path d="M16.7442,12.8853147 L15.3768,16.9734266 C15.3768,16.9734266 14.1642,16.3265734 12.6936,16.3265734 C10.5264,16.3265734 10.4232,17.6979021 10.4232,18.0342657 C10.4232,19.8972028 15.2736,20.6216783 15.2736,24.9944056 C15.2736,28.4356643 13.1064,30.6608392 10.1652,30.6608392 C6.6306,30.6608392 4.8504,28.4615385 4.8504,28.4615385 L5.805,25.3307692 C5.805,25.3307692 7.6626,26.934965 9.2106,26.934965 C10.2426,26.934965 10.6554,26.1328671 10.6554,25.5377622 C10.6554,23.1055944 6.6822,23.0020979 6.6822,18.9916084 C6.6822,15.627972 9.0816,12.3678322 13.9578,12.3678322 C15.8154,12.341958 16.7442,12.8853147 16.7442,12.8853147 Z" id="Shape" fill="#FFFFFF"></path>
                                </g>
                                <path d="M44.6082,20.5699301 C43.4988,19.9748252 42.9312,19.4573427 42.9312,18.7587413 C42.9312,17.879021 43.731,17.3097902 44.9694,17.3097902 C46.4142,17.3097902 47.7042,17.9048951 47.7042,17.9048951 L48.7104,14.8 C48.7104,14.8 47.7816,14.0755245 45.0468,14.0755245 C41.2284,14.0755245 38.571,16.2748252 38.571,19.3538462 C38.571,21.1132867 39.8094,22.4328671 41.4606,23.3902098 C42.8022,24.1405594 43.2666,24.6839161 43.2666,25.486014 C43.2666,26.313986 42.5958,26.9867133 41.3574,26.9867133 C39.5256,26.9867133 37.7712,26.0293706 37.7712,26.0293706 L36.6876,29.1342657 C36.6876,29.1342657 38.2872,30.220979 40.9962,30.220979 C44.9178,30.220979 47.7558,28.2804196 47.7558,24.7874126 C47.73,22.8727273 46.311,21.5531469 44.6082,20.5699301 Z" id="s" fill="#1A1919"></path>
                                <path d="M60.243,14.0237762 C58.308,14.0237762 56.7858,14.9552448 55.6248,16.3524476 L55.5732,16.3265734 L57.2502,7.52937063 L52.89,7.52937063 L48.633,29.9363636 L52.9932,29.9363636 L54.438,22.2776224 C55.0056,19.3797203 56.502,17.5944056 57.8952,17.5944056 C58.8756,17.5944056 59.2626,18.2671329 59.2626,19.2244755 C59.2626,19.8195804 59.211,20.5699301 59.082,21.165035 L57.4308,29.9363636 L61.791,29.9363636 L63.4938,20.8804196 C63.6744,19.9230769 63.8034,18.7846154 63.8034,18.0083916 C63.8292,15.4986014 62.5392,14.0237762 60.243,14.0237762 Z" id="h" fill="#1A1919"></path>
                                <path d="M73.7106,14.0237762 C68.4474,14.0237762 64.9644,18.7846154 64.9644,24.0888112 C64.9644,27.4783217 67.0542,30.220979 70.9758,30.220979 C76.1358,30.220979 79.6188,25.5895105 79.6188,20.1559441 C79.6446,16.9993007 77.8128,14.0237762 73.7106,14.0237762 Z M71.5692,26.8573427 C70.0728,26.8573427 69.4536,25.5895105 69.4536,23.9853147 C69.4536,21.4755245 70.7436,17.3874126 73.1172,17.3874126 C74.6652,17.3874126 75.1812,18.7328671 75.1812,20.0265734 C75.1812,22.7174825 73.8654,26.8573427 71.5692,26.8573427 Z" id="o" fill="#1A1919"></path>
                                <path d="M90.816,14.0237762 C87.8748,14.0237762 86.1978,16.6370629 86.1978,16.6370629 L86.1462,16.6370629 L86.4042,14.2825175 L82.5342,14.2825175 C82.3536,15.8608392 81.9924,18.293007 81.657,20.1041958 L78.6126,36.1461538 L82.9728,36.1461538 L84.1854,29.6517483 L84.2886,29.6517483 C84.2886,29.6517483 85.1916,30.220979 86.8428,30.220979 C91.977,30.220979 95.331,24.9426573 95.331,19.6125874 C95.331,16.6629371 94.0152,14.0237762 90.816,14.0237762 Z M86.6364,26.9090909 C85.5012,26.9090909 84.8304,26.2622378 84.8304,26.2622378 L85.5528,22.1741259 C86.0688,19.4314685 87.4878,17.6202797 89.01,17.6202797 C90.3516,17.6202797 90.7644,18.8622378 90.7644,20.0265734 C90.7644,22.8727273 89.0874,26.9090909 86.6364,26.9090909 Z" id="p" fill="#1A1919"></path>
                                <path d="M101.5746,7.73636364 C100.1814,7.73636364 99.072,8.84895105 99.072,10.272028 C99.072,11.5657343 99.8976,12.4713287 101.136,12.4713287 L101.1876,12.4713287 C102.555,12.4713287 103.716,11.5398601 103.7418,9.93566434 C103.7418,8.64195804 102.8904,7.73636364 101.5746,7.73636364 Z" id="dot" fill="#1A1919"></path>
                                <polygon id="i" fill="#1A1919" points="95.46 29.9104895 99.8202 29.9104895 102.7872 14.3601399 98.4012 14.3601399"></polygon>
                                <path d="M113.907,14.3342657 L110.8626,14.3342657 L111.0174,13.6097902 C111.2754,12.1090909 112.1526,10.7895105 113.6232,10.7895105 C114.3972,10.7895105 115.0164,11.0223776 115.0164,11.0223776 L115.8678,7.58111888 C115.8678,7.58111888 115.1196,7.19300699 113.4942,7.19300699 C111.9462,7.19300699 110.3982,7.63286713 109.2114,8.64195804 C107.715,9.90979021 107.0184,11.7468531 106.683,13.6097902 L106.554,14.3342657 L104.5158,14.3342657 L103.8708,17.6461538 L105.909,17.6461538 L103.587,29.9104895 L107.9472,29.9104895 L110.2692,17.6461538 L113.2878,17.6461538 L113.907,14.3342657 Z" id="f" fill="#1A1919"></path>
                                <path d="M124.4334,14.3601399 C124.4334,14.3601399 121.6986,21.2685315 120.486,25.0461538 L120.4344,25.0461538 C120.357,23.8300699 119.3508,14.3601399 119.3508,14.3601399 L114.7584,14.3601399 L117.39,28.6167832 C117.4416,28.9272727 117.4158,29.1342657 117.2868,29.3412587 C116.7708,30.3244755 115.9194,31.2818182 114.9132,31.9804196 C114.0876,32.5755245 113.1588,32.9636364 112.4364,33.2223776 L113.649,36.9482517 C114.5262,36.7671329 116.3838,36.0167832 117.9318,34.5678322 C119.9184,32.7048951 121.776,29.806993 123.6594,25.8741259 L129,14.3601399 L124.4334,14.3601399 Z" id="y" fill="#1A1919"></path>
                            </g>
                        </g>
                    </g>
                </g>
            </g>
        </g>
    </g>
</svg>